<svg id="Banner" xmlns="http://www.w3.org/2000/svg" viewBox="0 0 500 500"><defs><style>.cls-1{fill:#0094ff;}.cls-2{fill:#005fa5;}.cls-3{fill:#fff;}</style></defs><title>Logo</title><rect class="cls-1" width="500" height="500"/><polygon class="cls-2" points="139.01 273.1 365.91 500 500 500 500 500 500 365.39 273.36 138.75 139.01 273.1"/><path class="cls-3" d="M301.18,206.18a95,95,0,1,1-95-95,95,95,0,0,1,95,95"/><path class="cls-3" d="M354.67,383,206.18,234.47a20,20,0,1,1,28.29-28.29L383,354.68A20,20,0,0,1,354.67,383"/><path class="cls-2" d="M274,206.5A67.5,67.5,0,1,1,206.5,139,67.5,67.5,0,0,1,274,206.5"/></svg>