<svg id="Banner" xmlns="http://www.w3.org/2000/svg" viewBox="0 0 3234 500"><defs><style>.cls-1{fill:#0094ff;}.cls-2{fill:#005fa5;}.cls-3{fill:#fff;}.cls-4{fill:#002947;}</style></defs><title>Banner</title><rect class="cls-1" width="500" height="500"/><polygon class="cls-2" points="139.01 273.1 365.91 500 500 500 500 500 500 365.39 273.36 138.75 139.01 273.1"/><path class="cls-3" d="M301.18,206.18a95,95,0,1,1-95-95,95,95,0,0,1,95,95"/><path class="cls-3" d="M354.67,383,206.18,234.47a20,20,0,1,1,28.29-28.29L383,354.68A20,20,0,0,1,354.67,383"/><path class="cls-2" d="M274,206.5A67.5,67.5,0,1,1,206.5,139,67.5,67.5,0,0,1,274,206.5"/><rect class="cls-4" x="500" width="2734" height="500"/><path class="cls-3" d="M997.07,327.94l-11.48-2.44a92,92,0,0,1-21.42-7.32A90.83,90.83,0,0,1,945.55,306l15.51-19a70.1,70.1,0,0,0,22.33,13.18,77.66,77.66,0,0,0,26.49,4.39q19.29,0,29.91-7.14t10.62-20.2V277q0-9.29-4.82-14.71a28.88,28.88,0,0,0-12.45-8.06,139.24,139.24,0,0,0-19.72-4.82,2.52,2.52,0,0,0-.79-.12,2.47,2.47,0,0,1-.79-.12l-1.83-.37a188.9,188.9,0,0,1-29-6.9,40.84,40.84,0,0,1-19.1-14q-7.93-10.2-7.93-29v-.12q0-16.47,7.38-28.14t21.55-17.76q14.16-6.1,34.05-6.1a85.22,85.22,0,0,1,18.74,2.07,93.38,93.38,0,0,1,18.19,6.17,105.08,105.08,0,0,1,17.64,10.31l-14.16,19.78a83,83,0,0,0-20.2-11.17,58,58,0,0,0-20.21-3.72q-18.18,0-28.26,7.26t-10.07,20.57v.12q0,9.15,5.19,14.41a31.41,31.41,0,0,0,12.94,7.75,192.79,192.79,0,0,0,21.55,5.18,7.06,7.06,0,0,0,.91.19,9.27,9.27,0,0,1,.92.18c.4.08.85.17,1.34.25l1.34.24a147.71,147.71,0,0,1,26.92,7.81,42.09,42.09,0,0,1,18.07,14.59q7.26,10.07,7.26,27.53v.24q0,16.23-7.69,27.77T1045.1,321.9q-14.58,6-35.22,6Z"/><path class="cls-3" d="M1142.33,327.94l-12.45-6.59a44,44,0,0,1-19-19.35q-6.54-12.75-6.53-30.82V256.9q0-18.79,6.28-32.11a45,45,0,0,1,18.25-20.26q12-7,28.81-7,15.87,0,27.1,7.94T1202,228.45q5.93,15,5.92,36v8.31h-85.45v-20h61.77q-1.1-15.51-8-24.11T1157.71,220q-14.16,0-21.91,9.28t-7.75,26.24v16.12q0,15.75,8.3,24.17t23.56,8.42a39.36,39.36,0,0,0,15-3.05,43.27,43.27,0,0,0,13.31-8.55L1204.59,309a69.16,69.16,0,0,1-21.12,14,60.31,60.31,0,0,1-23.56,4.94Z"/><path class="cls-3" d="M1247.55,318.24q-11.6-9.71-11.59-29.48,0-18.79,10.62-28.2t32.1-9.4h36l1.71,20h-37.6q-9.77,0-14.58,4.33t-4.82,13.25q0,9.64,6.4,14.28t19.47,4.64q14.3,0,21.31-3.05t7-9.53l2.57,17.83a29.4,29.4,0,0,1-8.12,8.42,35.39,35.39,0,0,1-11.17,4.94,56.82,56.82,0,0,1-14.28,1.65Q1259.15,327.94,1247.55,318.24Zm66-72.45q0-12.45-6.65-19.35t-18.86-6.9a48.62,48.62,0,0,0-14.83,2.32,44.24,44.24,0,0,0-12.88,6.47l-18.19-12.45a47.54,47.54,0,0,1,19-13.49,68.58,68.58,0,0,1,26.18-4.82q15.75,0,27,5.56a38.6,38.6,0,0,1,17.09,16.11q5.85,10.56,5.86,25.45v81.42h-23.69Z"/><path class="cls-3" d="M1375.12,199.4H1400V326.11h-24.9Zm61.4,23.93a30,30,0,0,0-11.6-2.08q-11.84,0-18.37,6.53T1400,245.91l-2.56-24.41a46.48,46.48,0,0,1,15.13-17.64,35.79,35.79,0,0,1,20.51-6.29,46.7,46.7,0,0,1,15.69,2.5,35.07,35.07,0,0,1,12.27,7.39l-16.24,22A20.92,20.92,0,0,0,1436.52,223.33Z"/><path class="cls-3" d="M1513.18,327.94l-12.27-6.47a43.78,43.78,0,0,1-18.74-18.8q-6.47-12.33-6.47-29.78V252q0-17.2,6.47-29.41A43.58,43.58,0,0,1,1500.91,204q12.27-6.4,29.6-6.41a70.41,70.41,0,0,1,18.62,2.38,55.29,55.29,0,0,1,15.68,6.9,42.69,42.69,0,0,1,11.6,11L1558.47,234a37.31,37.31,0,0,0-12.58-9.4,35.62,35.62,0,0,0-15-3.3q-14.4,0-22.34,8.06t-7.93,22.7v20.88q0,15,7.87,23.19t22.4,8.18a33.93,33.93,0,0,0,15.14-3.54,36.88,36.88,0,0,0,12.45-10L1576.41,308a44.26,44.26,0,0,1-11.72,10.81,55,55,0,0,1-15.68,6.77,71.64,71.64,0,0,1-18.5,2.32Z"/><path class="cls-3" d="M1603.88,148.62h24.9V326.11h-24.9Zm76.9,100.71q0-13.43-7-20.75t-19.53-7.33q-12.21,0-18.86,6.35t-6.65,17.94l-2.56-24.41a45,45,0,0,1,15.32-17.39,37.51,37.51,0,0,1,20.93-6.17q20.63,0,31.92,13.49t11.29,38.15v76.9h-24.9Z"/><path class="cls-3" d="M1788.69,148.62h24.9V326.11h-24.9Zm16.85,153.81h40.16q19.65,0,30.46-10.19t10.8-28.75V211.24q0-18.56-10.8-28.74t-30.46-10.2h-40.16V148.62H1845q21.36,0,36.5,7.45a51.83,51.83,0,0,1,23.07,21.73q7.93,14.28,7.93,34.42v50.29q0,20.14-7.93,34.43a51.8,51.8,0,0,1-23.13,21.72q-15.21,7.45-36.57,7.45h-39.3Z"/><path class="cls-3" d="M1984.62,327.94l-12.46-6.59a44,44,0,0,1-19-19.35q-6.53-12.75-6.53-30.82V256.9q0-18.79,6.29-32.11a44.94,44.94,0,0,1,18.25-20.26q12-7,28.81-7,15.86,0,27.1,7.94t17.15,22.94q5.91,15,5.92,36v8.31h-85.45v-20h61.77q-1.11-15.51-8-24.11T2000,220q-14.18,0-21.92,9.28t-7.75,26.24v16.12q0,15.75,8.3,24.17t23.56,8.42a39.41,39.41,0,0,0,15-3.05,43.22,43.22,0,0,0,13.3-8.55L2046.87,309a69,69,0,0,1-21.12,14,60.23,60.23,0,0,1-23.56,4.94Z"/><path class="cls-3" d="M2074.58,199.4h63.36v21.24h-63.36ZM2088,182.19q0-16.84,7.75-25.21t23.87-8.36h18.31V172.3h-17.83a6.09,6.09,0,0,0-5.37,2.69,12.12,12.12,0,0,0-1.83,7V326.11H2088Z"/><path class="cls-3" d="M2188.47,293.4q0,4.64,2,7.14a6.85,6.85,0,0,0,5.67,2.5h11.72v23.68h-14.65q-14.16,0-21.91-8.79t-7.75-24.78V148.62h24.9Z"/><path class="cls-3" d="M2270.26,327.94l-12.45-6.59a44,44,0,0,1-19-19.35q-6.54-12.75-6.53-30.82V256.9q0-18.79,6.28-32.11a45,45,0,0,1,18.25-20.26q12-7,28.81-7,15.87,0,27.1,7.94t17.15,22.94q5.93,15,5.92,36v8.31h-85.45v-20h61.77q-1.1-15.51-8-24.11T2285.64,220q-14.16,0-21.91,9.28T2256,255.55v16.12q0,15.75,8.3,24.17t23.56,8.42a39.36,39.36,0,0,0,15-3.05,43.27,43.27,0,0,0,13.31-8.55L2332.52,309a69.16,69.16,0,0,1-21.12,14,60.31,60.31,0,0,1-23.56,4.94Z"/><path class="cls-3" d="M2403.8,327.94l-12.26-6.47a43.73,43.73,0,0,1-18.74-18.8q-6.48-12.33-6.47-29.78V252q0-17.2,6.47-29.41A43.53,43.53,0,0,1,2391.54,204q12.27-6.4,29.6-6.41a70.28,70.28,0,0,1,18.61,2.38,55.48,55.48,0,0,1,15.69,6.9,42.83,42.83,0,0,1,11.6,11L2449.09,234a37.27,37.27,0,0,0-12.57-9.4,35.66,35.66,0,0,0-15-3.3q-14.4,0-22.33,8.06t-7.94,22.7v20.88q0,15,7.87,23.19t22.4,8.18a33.89,33.89,0,0,0,15.14-3.54,36.88,36.88,0,0,0,12.45-10L2467,308a44.41,44.41,0,0,1-11.72,10.81,55,55,0,0,1-15.69,6.77,71.56,71.56,0,0,1-18.49,2.32Z"/><path class="cls-3" d="M2484.74,199.4h57.13v22.46h-57.13Zm20.2,118.84q-7.14-8.49-7.14-25.09V162.54h24.9V293.4q0,4.64,1.83,7.14a6.23,6.23,0,0,0,5.37,2.5h12v23.68h-14.41Q2512.09,326.72,2504.94,318.24Z"/><path class="cls-3" d="M2596.43,321.47a42.68,42.68,0,0,1-17.88-18.86q-6.16-12.39-6.17-29.84V252.14q0-17.22,6.17-29.48A42.46,42.46,0,0,1,2596.43,204q11.71-6.4,28.2-6.41t28.2,6.41a42.46,42.46,0,0,1,17.88,18.68q6.16,12.26,6.17,29.48v21q0,17.34-6.17,29.6a42.81,42.81,0,0,1-17.88,18.74q-11.72,6.48-28.2,6.47T2596.43,321.47Zm48.4-25.39q7.14-8.18,7.14-22.95v-21q0-14.77-7.14-22.83t-20.2-8.06q-13.07,0-20.2,8.06t-7.14,22.83v21q0,14.78,7.14,22.95t20.2,8.18Q2637.7,304.26,2644.83,296.08Z"/><path class="cls-3" d="M2712.28,199.4h24.9V326.11h-24.9Zm61.4,23.93a30,30,0,0,0-11.6-2.08q-11.84,0-18.37,6.53t-6.53,18.13l-2.56-24.41a46.48,46.48,0,0,1,15.13-17.64,35.79,35.79,0,0,1,20.51-6.29,46.7,46.7,0,0,1,15.69,2.5,35,35,0,0,1,12.26,7.39l-16.23,22A20.92,20.92,0,0,0,2773.68,223.33Z"/></svg>